<?xml version="1.0" standalone="no"?>
<!DOCTYPE svg PUBLIC "-//W3C//DTD SVG 20010904//EN"
 "http://www.w3.org/TR/2001/REC-SVG-20010904/DTD/svg10.dtd">
<svg version="1.0" xmlns="http://www.w3.org/2000/svg"
 width="960.000000pt" height="960.000000pt" viewBox="0 0 960.000000 960.000000"
 preserveAspectRatio="xMidYMid meet">

<g transform="translate(0.000000,960.000000) scale(0.100000,-0.100000)"
fill="#000000" stroke="none">
<path d="M4545 9589 c-707 -33 -1427 -238 -2050 -584 -261 -145 -582 -360
-729 -490 -6 -6 -27 -23 -46 -39 -245 -201 -536 -507 -756 -796 -166 -217
-346 -511 -467 -760 -188 -389 -312 -748 -396 -1150 -133 -635 -130 -1343 9
-1980 199 -913 643 -1727 1299 -2380 193 -192 305 -288 563 -485 102 -77 279
-191 463 -297 771 -443 1692 -664 2587 -618 991 50 1884 374 2671 968 646 487
1175 1156 1493 1887 36 83 71 164 79 180 14 31 122 353 148 440 14 45 61 240
87 355 5 25 17 90 25 145 9 55 20 126 26 157 39 221 52 800 24 1089 -55 577
-175 1028 -417 1569 -306 684 -846 1357 -1463 1822 -699 527 -1492 844 -2370
947 -92 11 -499 32 -570 29 -22 0 -116 -5 -210 -9z m785 -233 c403 -55 649
-110 980 -222 143 -48 180 -63 380 -152 330 -147 751 -402 962 -581 12 -10 66
-54 118 -97 123 -101 378 -351 489 -479 47 -55 89 -102 92 -105 3 -3 33 -41
67 -85 34 -44 79 -102 100 -130 116 -149 307 -466 414 -685 318 -651 471
-1316 470 -2045 -1 -1087 -369 -2097 -1070 -2938 -403 -483 -902 -877 -1474
-1163 -92 -46 -170 -84 -173 -84 -4 0 -32 -12 -63 -26 -331 -152 -844 -290
-1262 -339 -30 -4 -66 -8 -80 -10 -14 -2 -115 -9 -225 -16 -643 -39 -1364 81
-1970 328 -178 72 -517 237 -523 254 -2 5 -8 9 -14 9 -6 0 -49 23 -97 52 -642
385 -1195 935 -1578 1572 -400 665 -618 1389 -652 2161 -40 931 174 1779 654
2593 78 133 312 461 382 537 10 11 45 52 77 90 101 121 335 355 481 481 94 81
297 238 365 283 30 20 57 39 60 42 6 7 198 126 260 162 25 14 70 40 100 57
130 74 369 184 570 263 367 143 819 247 1250 286 169 15 762 6 910 -13z"/>
<path d="M4610 9184 c-595 -30 -1245 -201 -1755 -462 -159 -82 -439 -244 -455
-263 -3 -4 -30 -22 -60 -41 -316 -202 -722 -586 -1011 -958 -207 -265 -422
-638 -567 -980 -176 -417 -285 -873 -323 -1342 -17 -224 -7 -702 20 -902 118
-869 452 -1623 1015 -2296 95 -113 379 -398 490 -491 177 -148 537 -409 566
-409 4 0 15 -6 22 -13 16 -15 200 -118 317 -177 270 -135 579 -248 891 -325
312 -76 534 -109 870 -126 191 -10 262 -9 465 5 132 9 269 21 305 26 202 33
267 45 385 71 240 53 415 108 675 209 360 140 773 381 1095 639 172 137 181
145 385 350 264 264 469 527 657 840 51 85 93 160 93 167 0 7 4 14 8 16 10 4
112 210 112 226 0 7 4 12 8 12 5 0 14 15 19 33 11 31 64 163 83 202 38 82 134
392 178 575 82 340 115 628 115 1015 0 388 -26 632 -107 995 -49 221 -152 537
-236 725 -9 22 -34 77 -54 122 -56 125 -118 242 -212 401 -27 46 -53 90 -59
100 -71 122 -278 399 -416 556 -259 295 -569 566 -879 770 -58 38 -117 77
-132 87 -15 11 -30 19 -33 19 -3 0 -22 11 -43 23 -52 33 -180 102 -293 158
-464 229 -978 374 -1496 424 -161 15 -507 26 -643 19z m224 -390 c19 -18 19
-20 6 -45 -19 -34 -80 -19 -80 21 0 38 46 53 74 24z m-9 -126 c7 -42 26 -181
65 -473 17 -126 34 -237 37 -245 3 -9 11 5 20 35 21 67 59 187 123 388 43 134
57 167 72 167 17 0 18 -21 20 -341 l3 -340 140 245 c124 218 163 273 159 225
-1 -8 -25 -96 -54 -197 l-52 -183 22 -16 c26 -18 50 -70 51 -110 0 -27 1 -28
11 -5 8 16 8 29 0 48 -16 34 -15 64 3 64 22 0 35 -33 35 -92 l0 -52 22 22 c20
19 21 25 10 55 -15 42 -15 57 0 57 24 0 48 -34 48 -67 0 -33 0 -34 36 -27 39
7 84 -10 84 -33 0 -16 -26 -17 -36 -2 -8 14 -54 5 -94 -19 l-32 -20 84 -7 c53
-5 89 -13 101 -23 10 -9 37 -18 60 -21 49 -7 70 -36 57 -81 -9 -31 15 -95 44
-120 16 -13 20 -12 31 3 17 24 32 21 38 -8 4 -22 -1 -28 -29 -40 -19 -8 -34
-19 -34 -26 0 -20 54 -99 65 -96 6 2 9 18 7 36 -3 30 -2 32 25 29 25 -3 28 -7
29 -42 0 -48 15 -56 38 -21 17 26 56 35 56 12 0 -44 -110 -84 -159 -58 -17 10
-21 9 -21 -4 0 -21 -46 -20 -54 2 -5 12 -9 14 -14 6 -4 -7 -18 -10 -30 -6 -29
7 -30 53 -1 92 13 17 19 39 17 57 -3 28 -4 28 -27 -19 -29 -60 -60 -80 -120
-81 -89 -2 -131 42 -131 134 0 37 5 55 20 70 22 22 69 27 88 8 18 -18 15 -85
-3 -92 -41 -15 -68 29 -35 56 17 14 19 18 6 18 -16 0 -42 -44 -41 -70 4 -74
63 -94 144 -50 51 27 75 108 48 157 -11 20 -12 16 -12 -35 0 -51 -2 -57 -21
-60 -28 -4 -41 28 -18 45 12 9 15 20 10 47 -7 36 -26 59 -26 32 0 -25 -28 -19
-47 10 -15 23 -18 24 -28 10 -17 -23 -27 -20 -60 14 -33 35 -62 42 -45 11 14
-28 13 -66 -4 -80 -17 -14 -29 8 -16 29 11 17 4 30 -17 30 -10 0 -13 -6 -9
-16 4 -11 1 -14 -12 -12 -9 2 -17 12 -17 23 0 22 -30 31 -71 21 -34 -9 -30
-23 10 -30 88 -17 146 -150 94 -213 -14 -17 -38 -16 -38 1 0 11 -8 11 -40 3
-51 -14 -91 -1 -109 37 -11 23 -11 33 0 52 16 31 59 33 59 3 0 -14 -5 -19 -15
-16 -23 9 -29 -12 -9 -34 36 -40 84 -15 84 44 0 65 -69 115 -141 100 -24 -4
-29 -11 -29 -34 0 -16 -5 -29 -11 -29 -6 0 -8 7 -5 15 3 9 0 17 -7 20 -6 2
-200 6 -431 9 l-418 6 4 -25 c3 -14 0 -33 -7 -42 -11 -15 -15 -15 -29 -4 -9 7
-16 26 -16 42 0 28 -2 29 -50 29 -41 0 -53 -5 -75 -27 -27 -30 -31 -59 -12
-84 13 -18 50 -39 67 -39 21 0 21 29 1 49 -25 25 -26 37 -5 45 43 16 75 -81
39 -117 -23 -24 -83 -31 -110 -13 -22 15 -25 14 -35 -2 -9 -16 -12 -15 -31 8
-18 22 -21 33 -16 86 6 56 4 63 -18 84 -30 28 -32 59 -5 87 17 18 17 22 3 27
-9 4 -29 -6 -50 -25 -25 -22 -42 -29 -58 -25 -14 4 -32 -1 -47 -14 -18 -14
-28 -16 -36 -8 -8 8 -14 3 -24 -17 -11 -25 -10 -29 10 -43 27 -18 30 -52 4
-52 -24 0 -42 19 -42 45 0 15 -2 17 -9 6 -14 -22 3 -54 35 -64 38 -13 46 -28
27 -49 -14 -16 -14 -18 2 -24 10 -4 26 -2 36 4 26 16 39 15 33 -3 -11 -27 24
-16 45 14 25 35 27 68 5 99 -15 22 -54 31 -54 12 0 -5 7 -10 15 -10 17 0 34
-29 28 -47 -6 -16 -45 -17 -61 -1 -17 17 -15 68 5 90 21 23 65 23 86 0 22 -25
41 -103 33 -136 -10 -40 -57 -83 -98 -91 -56 -11 -121 23 -158 81 -27 44 -36
45 -30 4 1 -8 11 -27 21 -42 15 -21 18 -36 13 -63 -8 -43 -23 -54 -40 -30 -13
17 -14 17 -20 1 -5 -13 -14 -15 -34 -11 -22 5 -30 2 -34 -13 -12 -36 -131 -56
-160 -26 -32 31 -10 54 28 29 15 -10 33 -14 46 -10 24 8 17 25 -11 25 -28 0
-69 44 -69 73 0 33 32 72 53 64 12 -5 14 -12 8 -35 -6 -19 -4 -34 5 -47 13
-18 14 -18 14 6 0 29 26 69 45 69 21 0 28 -19 14 -36 -6 -8 -9 -17 -6 -21 12
-11 52 24 75 65 l23 41 -31 16 c-21 11 -30 23 -30 40 0 14 5 25 10 25 6 0 10
-3 10 -7 0 -5 4 -14 9 -22 8 -12 11 -12 24 1 29 29 58 97 49 116 -6 11 -5 30
3 52 9 28 18 36 41 38 16 2 44 10 62 18 19 9 63 21 99 27 l66 10 -23 19 c-15
12 -39 18 -71 18 -27 0 -49 4 -49 10 0 18 43 32 86 27 43 -4 43 -4 37 24 -5
24 -1 30 21 39 14 5 26 15 26 21 0 7 3 9 7 5 4 -3 6 -28 5 -54 -1 -26 4 -58
13 -72 13 -24 14 -21 15 46 0 73 13 101 39 85 10 -7 10 -13 2 -29 -6 -11 -10
-40 -10 -64 1 -24 3 -32 6 -18 8 56 14 70 38 94 13 13 29 26 35 28 8 2 -5 62
-40 186 -48 169 -55 212 -32 212 5 0 21 -24 37 -52 15 -29 54 -96 85 -148 31
-52 83 -140 116 -195 l59 -100 3 343 c1 188 6 342 10 342 7 0 95 -264 173
-517 12 -40 25 -73 29 -73 5 0 10 21 13 48 6 67 60 446 94 665 7 46 30 49 38
5z m359 -30 c15 -24 -3 -52 -37 -56 -28 -4 -43 23 -32 59 8 25 52 23 69 -3z
m-690 -7 c34 -38 -26 -85 -62 -49 -16 16 -15 33 4 52 21 21 37 20 58 -3z
m1012 -189 c31 -21 18 -72 -19 -72 -27 0 -47 17 -47 40 0 32 38 51 66 32z
m-1336 -32 c13 -24 -3 -60 -26 -60 -24 0 -54 19 -54 35 0 20 28 45 50 45 11 0
24 -9 30 -20z m709 -1088 c85 -75 206 -166 301 -227 80 -51 136 -80 393 -204
l164 -78 6 -69 c4 -38 7 -88 7 -112 l0 -43 58 50 c97 84 200 120 264 90 31
-14 72 -81 88 -144 7 -27 15 -126 19 -220 l6 -170 20 55 c15 43 19 81 19 175
0 129 -10 175 -53 239 -54 80 -63 96 -53 96 20 0 69 -68 97 -133 15 -37 30
-65 32 -63 2 2 -1 25 -8 51 -8 31 -32 73 -71 122 -33 41 -57 81 -54 88 7 19
68 3 110 -29 61 -46 93 -193 82 -373 -4 -62 -5 -113 -2 -113 11 0 66 101 80
149 28 94 21 161 -24 267 -40 93 -48 136 -31 163 13 20 26 8 62 -56 l33 -57 9
30 c13 39 26 54 47 54 15 0 19 -12 25 -76 4 -42 5 -100 2 -129 l-5 -53 66 46
c37 25 69 49 72 53 3 3 33 21 67 38 97 48 223 41 223 -13 0 -31 -11 -34 -85
-28 -78 6 -129 -9 -204 -59 -105 -70 -247 -224 -299 -324 -14 -29 -14 -29 3
-15 10 8 49 56 86 106 107 142 171 194 239 194 42 0 48 -19 14 -44 -51 -37
-202 -186 -351 -348 -251 -273 -373 -354 -556 -372 -63 -6 -77 -11 -77 -28 0
-15 114 0 178 23 159 58 210 97 511 403 136 138 215 203 308 250 122 61 200
74 352 56 l109 -13 39 41 c38 40 43 42 96 42 61 0 69 -8 37 -40 l-20 -20 52
-34 c29 -19 64 -45 76 -59 l24 -25 -26 -17 c-21 -14 -32 -15 -56 -7 -16 6 -30
9 -30 7 0 -2 36 -42 79 -87 43 -46 96 -102 116 -125 48 -56 131 -103 179 -103
69 0 123 84 82 126 -21 21 -26 18 -26 -16 0 -27 -3 -30 -30 -30 -23 0 -31 5
-36 26 -22 87 93 113 132 30 31 -65 -5 -138 -84 -172 -32 -13 -33 -14 -18 -36
24 -33 20 -38 -29 -38 -25 0 -45 -4 -45 -9 0 -5 33 -45 74 -88 87 -92 182
-153 239 -153 47 0 65 16 73 69 5 33 4 41 -9 41 -9 0 -19 -4 -22 -10 -10 -17
-43 -11 -69 13 l-26 22 19 42 c21 45 46 58 95 49 59 -11 106 -84 106 -165 0
-44 -5 -56 -36 -91 -39 -43 -40 -56 -4 -45 38 12 92 68 116 120 29 61 31 158
6 225 -16 39 -21 45 -47 45 -23 0 -31 5 -33 22 -2 14 4 26 16 32 17 9 25 5 52
-25 17 -20 36 -48 42 -63 10 -23 12 -24 15 -6 6 28 25 65 34 65 4 0 13 -17 19
-37 16 -51 24 -57 49 -42 36 23 41 1 22 -83 -50 -214 -166 -311 -334 -280 -79
15 -205 78 -302 151 -108 82 -113 73 -20 -34 60 -68 159 -143 235 -176 47 -20
71 -24 160 -24 103 0 106 1 178 40 68 37 72 41 72 75 0 65 9 81 43 78 23 -2
33 -10 40 -31 7 -23 4 -34 -25 -74 -39 -54 -112 -108 -171 -125 -23 -6 -85
-12 -137 -12 -79 0 -106 5 -164 27 -37 15 -70 27 -71 27 -2 0 -1 -19 2 -41 6
-40 5 -41 -18 -34 -40 12 -83 42 -112 80 -15 19 -31 35 -36 35 -4 0 -12 -43
-19 -96 -6 -53 -13 -98 -16 -101 -20 -20 -65 74 -66 135 0 51 -11 53 -36 7
-21 -39 -29 -43 -38 -19 -12 32 -5 91 20 169 37 114 36 175 -4 250 l-31 60 -1
-99 c0 -176 -47 -292 -165 -412 -88 -89 -162 -127 -256 -132 -85 -5 -151 22
-212 87 -176 188 -142 536 54 558 35 4 51 0 78 -19 58 -39 75 -71 79 -146 3
-77 -8 -106 -56 -139 -28 -18 -38 -20 -63 -11 -36 12 -49 35 -49 86 0 54 38
91 75 74 34 -16 35 -16 35 12 0 31 -36 76 -61 76 -32 0 -76 -27 -106 -67 -25
-32 -28 -45 -28 -112 0 -66 4 -83 31 -131 35 -62 96 -114 152 -130 60 -16 148
-12 190 9 45 23 83 61 61 61 -8 0 -19 -4 -25 -9 -16 -16 -122 -31 -148 -21
-27 10 -40 38 -30 64 8 22 30 20 65 -5 26 -18 33 -19 65 -9 115 38 214 214
214 379 0 142 -62 276 -176 380 -132 120 -380 145 -554 55 -107 -56 -106 -75
3 -25 95 44 132 53 236 52 183 0 346 -103 424 -269 76 -160 31 -391 -84 -431
-20 -7 -29 -6 -32 2 -6 17 11 47 28 47 22 0 67 55 87 107 65 171 -45 393 -240
486 -96 45 -258 49 -366 7 -16 -6 -26 -13 -23 -17 3 -3 23 1 44 10 63 25 150
30 229 13 242 -50 409 -265 335 -431 -21 -47 -22 -48 -59 -42 -44 7 -74 40
-70 76 5 39 45 41 76 4 l24 -28 -6 58 c-12 116 -66 194 -173 249 -118 62 -244
72 -374 31 -48 -15 -149 -68 -149 -79 0 -2 36 10 80 26 117 43 193 55 261 41
99 -21 168 -69 169 -118 0 -32 -16 -29 -82 15 -61 42 -158 69 -203 58 -26 -7
-26 -8 31 -48 33 -22 61 -42 64 -45 9 -8 -45 -43 -67 -43 -12 0 -57 14 -100
31 -67 26 -88 30 -149 27 -60 -3 -77 -8 -110 -33 l-39 -29 74 -13 c105 -17
151 -67 151 -162 0 -101 -115 -140 -135 -45 -5 28 -3 33 25 44 17 7 32 11 33
9 2 -2 8 -15 14 -29 l11 -25 7 28 c9 34 -9 81 -39 101 -37 24 -104 38 -152 30
-47 -7 -61 -24 -19 -24 14 0 34 -9 45 -20 11 -11 20 -31 20 -45 0 -32 -30 -33
-73 -3 -42 30 -80 26 -168 -14 -101 -47 -138 -92 -43 -52 63 26 166 16 246
-25 77 -39 124 -84 167 -164 56 -102 79 -282 46 -361 -8 -20 -17 -36 -19 -36
-3 0 -12 -3 -21 -6 -15 -6 -16 5 -10 122 7 117 5 135 -15 193 -38 113 -119
206 -200 230 -54 16 -163 15 -225 -2 -27 -8 -102 -35 -165 -60 -168 -65 -205
-77 -292 -89 -54 -8 -78 -15 -78 -25 0 -7 7 -16 15 -19 28 -11 149 18 260 62
201 79 265 97 357 102 80 4 93 2 143 -22 125 -62 199 -238 161 -386 -30 -117
-86 -194 -174 -239 -93 -47 -211 -8 -269 89 -28 46 -33 64 -33 117 0 98 36
144 110 140 45 -2 45 -2 51 -45 8 -61 -18 -102 -66 -102 -19 0 -35 -5 -35 -10
0 -26 30 -79 56 -99 24 -19 38 -22 81 -19 162 14 236 214 131 359 -39 54 -47
43 -14 -22 14 -29 26 -69 26 -89 0 -96 -60 -200 -115 -200 l-26 0 22 40 c13
22 26 40 30 40 4 0 17 15 28 34 43 69 20 187 -50 252 -75 70 -134 68 -332 -9
-61 -24 -158 -59 -215 -77 -57 -17 -101 -34 -99 -36 3 -3 43 0 90 7 93 13 122
9 155 -19 24 -21 45 -98 32 -121 -19 -37 -44 -48 -79 -39 l-33 9 6 57 6 57
-97 -6 c-54 -4 -110 -7 -126 -8 -20 -1 -30 -8 -38 -28 -20 -49 -45 -116 -83
-218 -157 -423 -243 -601 -339 -702 -17 -18 -29 -34 -26 -36 2 -1 36 -13 76
-25 125 -39 309 -140 388 -214 l31 -28 106 43 c101 40 107 43 101 67 -9 40
-78 179 -128 255 -25 38 -45 74 -45 80 0 10 27 53 39 65 4 3 19 24 35 48 16
24 33 45 37 48 5 3 32 -13 61 -35 190 -141 472 -251 649 -251 75 0 87 8 75 54
-9 36 -70 56 -168 56 l-81 0 6 66 c10 126 78 184 224 192 103 6 198 -9 373
-56 121 -33 148 -37 260 -37 117 0 128 2 178 28 28 15 52 33 52 39 0 9 3 9 11
1 15 -15 -15 -77 -46 -97 -37 -24 -132 -45 -237 -52 l-98 -6 0 -40 c0 -21 5
-48 11 -60 6 -11 9 -22 6 -24 -2 -3 -35 14 -73 37 -38 23 -92 52 -120 65 -91
40 -264 60 -264 30 0 -7 18 -46 41 -87 23 -41 41 -83 41 -94 1 -75 -62 -183
-135 -232 -86 -57 -198 -56 -395 3 -63 19 -121 33 -127 30 -19 -7 -72 -154
-90 -247 -16 -86 -20 -175 -7 -181 15 -7 72 -88 121 -173 91 -158 129 -327
101 -443 -11 -50 -11 -52 15 -76 30 -28 45 -24 79 22 51 67 -11 255 -163 495
-107 168 33 21 154 -162 65 -100 96 -187 97 -276 1 -68 -16 -124 -43 -140 -26
-17 -83 -6 -124 23 l-43 30 -32 -40 c-43 -53 -89 -72 -155 -63 -67 8 -109 39
-143 105 -26 49 -28 60 -19 95 14 58 50 88 95 80 65 -12 82 -31 82 -91 l0 -54
-34 0 c-18 0 -39 7 -46 15 -21 25 -30 17 -30 -25 0 -53 29 -80 86 -80 35 0 47
5 70 33 83 98 92 244 24 422 -9 24 -10 24 -40 7 l-31 -17 -43 50 c-24 28 -46
48 -49 45 -2 -3 -16 -28 -31 -56 -27 -49 -73 -84 -111 -84 -19 0 -19 4 0 40 9
17 14 30 13 30 -2 0 -39 -14 -83 -31 -317 -123 -550 -169 -865 -169 -324 0
-630 59 -917 178 -40 16 -73 28 -73 25 0 -3 8 -18 17 -34 21 -35 13 -44 -27
-30 -36 12 -61 39 -92 96 -19 36 -22 38 -32 21 -6 -10 -22 -30 -35 -43 -23
-24 -48 -27 -101 -12 -22 6 -41 -79 -47 -212 -6 -134 3 -172 52 -224 26 -29
40 -35 73 -35 33 0 45 6 67 32 20 23 25 38 20 57 -9 35 -12 37 -33 18 -23 -21
-41 -21 -64 0 -28 25 -22 61 16 99 33 33 76 44 101 26 22 -16 45 -73 45 -112
0 -157 -191 -225 -309 -109 -22 22 -42 39 -45 39 -3 0 -25 -13 -49 -30 -88
-59 -137 -28 -137 87 0 55 30 204 49 248 5 11 21 48 35 83 30 74 77 145 120
185 31 28 75 51 83 43 4 -4 -24 -55 -37 -66 -3 -3 -32 -46 -63 -96 -137 -219
-166 -356 -93 -441 l23 -27 31 22 30 22 4 172 c4 149 7 181 27 230 20 51 95
168 161 251 21 26 22 36 17 110 -4 45 -14 108 -22 139 -14 54 -66 175 -80 189
-3 4 -56 -6 -118 -22 -117 -30 -335 -57 -377 -46 -18 4 -39 30 -71 84 -74 124
-99 171 -99 187 0 8 22 52 49 98 l50 83 -32 7 c-78 18 -250 -14 -327 -60 -67
-41 -150 -143 -150 -184 0 -8 14 -22 30 -32 36 -21 32 -31 -14 -40 -82 -16
-89 35 -19 139 37 55 48 81 51 121 l4 51 -53 6 c-30 4 -79 7 -110 7 -64 0
-155 24 -183 48 -23 21 -49 79 -40 93 4 7 12 5 23 -5 27 -25 91 -47 159 -57
80 -11 210 2 407 43 118 25 177 31 276 32 124 1 126 1 163 -28 50 -38 76 -95
76 -172 l0 -61 -122 -7 c-67 -4 -124 -9 -126 -11 -2 -2 -1 -22 3 -45 6 -36 10
-41 29 -37 130 33 235 58 301 72 180 40 279 87 418 199 23 18 41 26 45 20 128
-185 122 -158 58 -256 -67 -104 -112 -193 -121 -240 -6 -34 -5 -38 26 -53 44
-23 138 -55 161 -55 10 0 46 22 81 48 110 86 209 137 369 192 65 23 66 23 55
49 -6 14 -61 103 -123 196 -192 292 -260 437 -291 623 l-18 103 -138 -2 c-75
-1 -140 -5 -142 -9 -3 -4 2 -13 10 -20 18 -15 20 -71 3 -88 -24 -24 -65 -14
-87 22 -25 39 -27 76 -6 115 22 43 61 54 162 47 l88 -6 -41 19 c-51 23 -291
103 -398 132 -99 26 -138 18 -201 -46 -46 -45 -65 -92 -65 -158 0 -47 11 -69
61 -124 42 -46 50 -73 22 -73 -37 0 -81 38 -98 84 -21 56 -17 165 8 215 9 19
14 37 11 40 -11 12 -52 -48 -69 -103 -29 -91 -7 -167 66 -230 84 -72 193 -67
225 10 21 49 15 69 -20 70 -39 1 -66 36 -66 85 0 33 5 42 32 59 31 19 33 19
63 2 34 -20 75 -92 75 -134 0 -36 -35 -129 -62 -163 -26 -33 -112 -75 -154
-75 -51 0 -124 30 -165 69 -21 21 -53 68 -71 107 -31 64 -33 76 -33 169 1 92
4 106 34 170 57 123 129 162 283 152 73 -5 122 -17 300 -77 117 -39 239 -74
271 -77 53 -5 57 -4 57 16 0 17 -6 21 -33 21 -61 0 -151 21 -282 67 -341 118
-452 121 -561 15 -77 -75 -125 -241 -107 -367 12 -86 8 -126 -13 -118 -41 15
-62 129 -44 238 22 142 126 301 225 346 60 27 130 32 213 16 39 -8 72 -11 72
-7 0 14 -37 40 -95 66 -74 34 -136 36 -168 6 -31 -29 -55 -28 -63 3 -8 32 16
61 58 71 42 9 17 24 -40 24 -86 0 -162 -50 -162 -107 0 -38 2 -39 34 -18 26
18 52 12 58 -13 7 -26 -1 -41 -32 -57 -49 -25 -68 -19 -91 29 -27 55 -20 100
24 154 40 50 65 62 128 62 65 0 61 14 -16 53 -65 33 -73 33 -240 -12 -85 -23
-139 -21 -149 5 -10 26 -7 30 32 50 20 10 48 27 61 37 24 17 24 17 -30 17 -57
0 -117 -22 -172 -63 -17 -14 -42 -28 -54 -32 -19 -5 -23 -2 -23 15 0 34 28 79
61 96 79 41 255 37 359 -8 25 -11 56 -24 70 -29 l25 -9 -25 21 c-68 59 -202
95 -310 84 -184 -18 -361 -136 -376 -250 -8 -51 3 -118 17 -110 5 4 9 15 9 25
0 25 15 33 46 26 34 -9 33 -55 -2 -90 -34 -33 -57 -33 -83 0 -31 40 -43 95
-32 146 23 99 65 163 156 234 77 59 150 85 263 91 117 7 109 27 -11 28 -71 0
-92 -4 -160 -33 -61 -27 -92 -49 -150 -106 -87 -86 -117 -151 -124 -266 -8
-124 6 -157 106 -241 17 -15 31 -34 31 -43 0 -15 -3 -15 -37 -1 -54 23 -80 51
-103 112 -46 122 -17 293 68 405 60 80 135 131 241 164 72 22 98 26 175 22 79
-4 101 -9 166 -40 41 -20 90 -46 108 -58 17 -12 32 -17 32 -11 0 15 -92 72
-165 102 -52 21 -76 24 -180 24 -171 0 -248 -30 -352 -136 -50 -50 -117 -181
-134 -258 -17 -82 -7 -236 19 -287 53 -104 122 -146 241 -148 66 -1 75 -4 82
-23 5 -13 3 -28 -5 -39 -17 -22 -117 -23 -167 -1 -35 16 -89 61 -89 76 0 5 -7
11 -15 15 -13 4 -14 2 -5 -14 18 -33 77 -87 127 -117 42 -24 58 -28 128 -28
74 0 85 3 133 33 41 27 58 46 82 95 36 75 43 115 35 185 -13 107 -113 171
-164 106 -12 -15 -21 -37 -21 -49 0 -22 2 -22 29 -12 25 9 33 8 50 -8 39 -34
24 -165 -19 -165 -45 0 -105 54 -119 107 -15 53 -13 82 8 128 27 61 73 95 127
95 53 0 79 -12 116 -53 50 -55 71 -129 66 -232 -4 -76 -10 -102 -37 -158 -36
-75 -108 -153 -168 -183 -26 -12 -60 -18 -108 -19 -124 0 -243 75 -334 212
-68 101 -95 189 -96 310 0 57 -2 103 -5 103 -3 0 -16 -16 -29 -36 -37 -54 -39
-128 -7 -248 39 -141 26 -236 -20 -151 -10 19 -22 35 -26 35 -5 0 -8 -23 -8
-50 0 -52 -19 -110 -43 -135 -12 -12 -16 -11 -25 9 -5 13 -13 50 -17 82 -11
101 -12 101 -54 62 -50 -49 -82 -68 -108 -68 -26 0 -27 2 -14 48 11 36 18 35
-79 12 -74 -18 -220 -32 -281 -28 -96 6 -152 37 -183 101 -34 67 -34 114 -1
129 37 16 55 -4 55 -61 l0 -47 88 -32 c209 -77 375 -58 505 57 38 34 117 147
117 167 0 16 -32 -8 -115 -86 -52 -50 -106 -95 -121 -100 -135 -52 -271 -16
-385 101 -60 60 -91 125 -102 206 -6 52 2 59 37 32 21 -17 26 -18 26 -5 0 25
31 96 40 91 4 -3 11 -21 14 -40 8 -41 21 -46 30 -11 10 39 55 86 83 86 21 0
24 -4 21 -27 -2 -16 -8 -27 -15 -25 -7 1 -19 3 -25 5 -7 1 -24 -20 -37 -48
-31 -63 -35 -161 -9 -216 24 -50 129 -142 144 -126 2 2 -6 26 -18 53 -16 36
-22 69 -23 121 0 62 3 75 24 97 31 33 80 42 119 22 35 -18 46 -52 31 -95 -10
-29 -14 -31 -53 -29 -35 3 -41 0 -44 -18 -5 -34 34 -74 74 -74 46 0 125 31
168 67 37 30 146 161 146 175 0 5 -16 8 -35 8 -28 0 -35 4 -35 20 0 11 5 20
10 20 24 0 7 18 -21 24 -18 3 -47 22 -65 42 -28 29 -34 43 -34 80 0 45 13 82
34 96 22 15 70 8 93 -14 29 -27 29 -50 0 -84 -22 -25 -24 -26 -41 -9 -11 11
-16 27 -13 42 5 27 0 29 -25 6 -22 -20 -23 -51 -1 -75 21 -24 107 -24 165 -1
79 31 198 134 272 236 l27 37 -55 0 c-40 0 -56 4 -56 13 0 17 43 57 98 91 23
14 42 29 42 32 0 3 -10 14 -22 23 -31 25 -14 41 43 41 45 0 54 -4 98 -45 48
-45 49 -45 92 -36 24 6 82 11 129 11 134 0 248 -35 370 -115 82 -53 134 -103
244 -232 48 -56 117 -129 153 -162 150 -139 345 -232 478 -230 46 1 44 2 -31
15 -196 33 -334 124 -530 349 -111 129 -274 293 -344 348 -36 28 -69 54 -74
58 -5 5 3 13 18 19 20 7 36 6 64 -5 40 -17 141 -118 212 -214 25 -33 51 -62
58 -65 41 -17 -144 213 -229 286 -83 71 -154 100 -260 106 -49 2 -89 8 -89 12
0 4 9 19 21 34 45 57 167 21 332 -98 42 -31 79 -56 81 -56 2 0 -1 24 -6 53
-10 54 -4 178 10 204 7 11 15 7 40 -21 17 -20 34 -36 37 -36 2 0 21 25 42 55
25 39 39 52 45 43 16 -25 7 -84 -23 -153 -39 -91 -48 -180 -25 -261 19 -63 76
-197 83 -190 2 2 -3 46 -12 97 -33 188 20 369 124 427 89 50 94 14 11 -93 -33
-43 -60 -80 -60 -84 -1 -3 -5 -25 -9 -48 -5 -24 -5 -43 -2 -43 4 0 19 28 34
63 28 63 73 124 84 113 3 -3 -1 -14 -9 -23 -17 -21 -60 -112 -77 -163 -45
-144 -25 -308 50 -400 l20 -25 -17 40 c-42 105 -54 151 -54 219 0 117 30 205
98 287 25 31 111 69 155 69 54 0 127 -40 181 -101 l46 -51 0 145 0 144 63 28
c304 134 523 262 727 426 80 64 142 107 159 109 2 0 33 -26 70 -58z m-3214
-2017 c33 -8 71 -16 85 -19 14 -2 -10 -4 -53 -5 l-78 -1 3 -27 c3 -25 9 -29
51 -37 60 -12 61 -24 1 -24 -45 0 -71 -11 -46 -19 20 -7 14 -23 -9 -23 -20 0
-21 -4 -16 -43 4 -24 2 -48 -2 -53 -5 -5 -6 -35 -4 -66 l5 -57 52 -9 51 -10
-55 -2 c-53 -2 -54 -2 -26 -14 l29 -13 -42 -7 c-48 -7 -52 -19 -13 -34 15 -6
36 -14 47 -18 16 -6 11 -9 -25 -16 -64 -12 -68 -12 -142 7 -80 21 -88 40 -24
56 55 14 72 32 81 86 5 35 4 42 -12 47 -24 8 -268 26 -432 32 -74 3 -138 7
-143 10 -12 8 -68 -6 -68 -17 0 -5 6 -9 13 -9 21 0 89 -21 84 -26 -3 -3 -33 0
-67 6 -53 10 -65 9 -87 -5 -36 -24 -45 -9 -33 56 6 30 10 81 8 114 -3 69 -8
66 107 47 l60 -10 -48 -1 c-54 -1 -61 -20 -11 -32 37 -9 321 -30 483 -35 116
-4 126 -3 147 17 30 28 18 62 -41 118 -25 24 -43 46 -41 50 7 11 145 2 211
-14z m6628 -42 c16 -9 5 -24 -30 -38 -58 -25 -73 -43 -73 -91 0 -24 4 -45 9
-49 13 -7 360 13 432 25 31 6 80 11 110 11 30 0 67 5 83 11 26 10 27 13 10 19
-10 4 -31 8 -46 8 -15 1 -29 5 -32 9 -3 5 27 8 65 8 57 0 73 3 80 17 6 9 16
17 23 17 10 0 15 -26 19 -97 3 -54 9 -110 12 -125 l7 -28 -83 0 c-84 0 -98 8
-33 19 20 3 36 11 35 16 -2 11 -56 11 -296 -5 -307 -20 -343 -26 -374 -64 -19
-23 12 -72 65 -104 48 -29 57 -51 22 -53 -44 -2 33 -19 127 -29 198 -21 423
-40 478 -40 43 0 59 -4 64 -16 9 -25 -14 -64 -39 -64 -13 0 -43 -14 -67 -30
-24 -17 -49 -30 -54 -30 -6 0 -39 -18 -73 -41 -34 -22 -73 -41 -86 -41 -12 -1
-34 -11 -48 -24 -14 -12 -41 -30 -60 -39 -19 -10 -45 -25 -56 -34 -12 -9 -49
-26 -83 -36 -81 -26 -80 -45 2 -45 34 0 80 -5 102 -11 71 -18 305 -29 326 -16
29 18 24 23 -33 34 l-53 10 81 2 c63 1 83 5 88 16 3 8 13 15 21 15 13 0 15 -7
11 -27 -3 -16 -8 -53 -12 -83 -12 -100 -31 -122 -69 -80 -39 43 -114 59 -350
75 -44 3 -113 10 -153 15 -113 15 -141 13 -178 -15 -32 -24 -75 -32 -109 -19
-22 9 -1 24 33 24 41 0 13 19 -38 26 -67 9 -64 24 5 24 52 0 75 14 38 23 -14
3 -11 6 9 11 21 6 28 15 30 39 3 31 4 32 53 32 38 0 69 10 128 40 43 22 80 42
83 46 2 4 -15 14 -38 22 l-43 15 82 1 c86 1 112 12 66 29 -25 9 -21 11 32 12
33 1 52 4 43 7 -26 7 -22 24 5 22 80 -7 100 14 25 25 -75 11 -76 24 -2 20 83
-5 134 3 134 21 0 15 -33 19 -299 36 l-184 12 -27 -33 c-18 -22 -35 -32 -54
-32 -34 0 -46 11 -23 23 10 6 17 22 17 39 0 16 5 32 12 36 12 8 -68 32 -117
35 -18 1 -4 6 35 12 63 10 64 11 27 17 -35 7 -69 24 -37 20 8 -1 29 -2 47 -1
24 1 31 5 27 16 -4 10 -25 15 -67 17 l-62 3 64 14 c54 12 61 16 47 26 -15 11
-14 14 6 27 21 14 22 18 11 49 -9 22 -9 36 -3 45 7 8 7 21 0 38 -5 15 -10 41
-10 57 0 28 -1 29 -52 30 l-53 1 50 12 c45 11 48 13 25 20 l-25 8 33 10 c17 6
32 15 32 20 0 12 -45 28 -83 29 -30 1 -29 2 18 19 39 14 68 17 130 13 44 -3
83 -7 88 -10z m-7394 -473 c9 -5 -4 -10 -34 -14 -26 -4 -43 -11 -39 -15 5 -5
43 -21 84 -36 41 -15 80 -31 85 -36 6 -4 33 -12 60 -18 66 -13 163 -38 200
-52 17 -5 63 -13 103 -16 47 -4 72 -10 72 -18 0 -14 52 -25 118 -25 24 0 53
-5 65 -12 21 -11 21 -11 2 -18 -16 -6 -10 -9 22 -14 79 -14 59 -27 -36 -25
-51 1 -94 -1 -98 -5 -3 -3 7 -6 23 -6 16 0 36 -5 44 -10 16 -10 -56 -17 -130
-12 -45 3 -124 -19 -107 -30 7 -4 26 -9 42 -10 17 -1 -19 -4 -80 -8 -96 -5
-122 -10 -205 -44 -52 -21 -110 -40 -127 -43 -18 -3 -33 -9 -33 -13 0 -4 -12
-11 -27 -16 l-28 -7 30 -7 c28 -6 27 -7 -17 -14 -27 -4 -52 -14 -57 -23 -5 -9
-15 -14 -23 -10 -11 4 -17 30 -22 97 -4 50 -6 94 -3 96 2 3 17 0 33 -6 23 -9
26 -13 14 -21 -23 -16 118 -1 143 16 12 7 47 21 77 31 30 9 60 21 67 26 15 12
7 128 -10 145 -13 12 -131 41 -208 50 -48 5 -76 -11 -48 -28 19 -12 -29 -28
-64 -22 -27 5 -27 6 -27 87 0 100 7 110 75 100 28 -3 56 -10 64 -14z m6267
-285 c23 -43 27 -58 18 -72 -12 -20 -62 -28 -84 -14 -12 9 -10 15 13 38 24 26
26 32 17 63 -12 42 -12 40 -1 40 5 0 21 -25 37 -55z m-5535 -194 c-44 -23 -30
-30 39 -21 30 4 56 6 58 5 1 -1 -26 -13 -60 -26 -47 -17 -57 -24 -40 -27 27
-4 28 -13 4 -29 -14 -8 -18 -20 -14 -42 4 -32 2 -34 -50 -45 -25 -6 -168 -131
-168 -148 0 -4 21 -8 48 -10 l47 -3 -60 -18 c-33 -10 -71 -23 -85 -29 l-25
-11 30 -7 30 -6 -40 -13 c-71 -22 -72 -23 -45 -31 23 -6 22 -8 -17 -19 -72
-20 -65 -35 13 -28 38 3 65 4 59 2 -5 -1 -44 -13 -85 -26 -74 -22 -121 -51
-107 -66 4 -4 24 -1 45 7 20 7 64 17 97 21 113 15 309 71 338 96 9 9 17 24 17
33 0 23 24 42 55 46 28 3 32 -8 11 -25 -17 -14 -9 -51 10 -51 8 0 14 -4 14
-10 0 -5 -4 -10 -10 -10 -5 0 -10 -5 -10 -11 0 -7 9 -9 23 -6 21 6 21 6 -3
-14 l-25 -21 43 6 c61 9 73 -4 22 -23 -23 -9 -40 -20 -39 -26 2 -5 9 -8 14 -6
6 2 19 5 30 8 19 4 19 3 2 -9 -53 -37 -54 -39 -12 -32 l40 7 -23 -19 c-19 -16
-21 -25 -16 -52 6 -32 9 -34 42 -30 33 4 33 3 16 -11 -15 -13 -19 -30 -19 -91
0 -41 -4 -90 -8 -107 l-6 -32 51 20 c63 25 72 20 15 -9 -54 -28 -93 -59 -85
-67 3 -4 16 -1 28 5 11 6 26 10 32 8 5 -2 -9 -14 -33 -26 -24 -12 -62 -40 -84
-61 -44 -42 -106 -76 -212 -117 -91 -36 -163 -44 -238 -29 -146 31 -177 62
-242 239 -14 39 -38 93 -53 122 l-28 52 26 12 c15 7 43 19 62 27 l35 15 -22
-24 c-40 -42 -28 -47 54 -23 28 8 80 35 117 60 68 47 87 56 66 30 -10 -12 -10
-15 3 -15 9 0 18 4 21 9 7 11 140 75 188 90 21 7 40 17 43 22 4 5 14 9 23 9
17 1 62 33 62 45 0 23 -238 -19 -515 -91 -132 -34 -178 -43 -187 -38 -5 3 -8
19 -8 35 0 21 7 32 23 40 13 6 67 60 121 120 54 60 105 109 112 109 8 0 25 17
38 38 33 51 115 135 165 168 28 18 39 30 32 37 -10 10 -18 8 -125 -24 -16 -5
-48 -9 -71 -9 -23 0 -77 -10 -121 -21 -43 -12 -91 -24 -106 -26 -14 -3 -37
-16 -50 -30 l-23 -26 53 7 c28 4 52 5 52 2 0 -3 -31 -15 -69 -27 -51 -17 -72
-29 -80 -46 -15 -32 -28 -22 -34 24 -3 21 -10 60 -16 87 -18 82 -3 101 55 71
16 -8 42 -15 58 -15 36 0 186 27 251 46 28 8 97 24 155 35 147 28 165 35 201
80 27 34 36 39 72 39 l42 -1 -34 -18z m6449 -266 c89 -30 94 -31 52 -4 -18 12
-31 23 -29 26 3 2 38 -6 78 -18 41 -12 97 -24 124 -26 47 -4 49 -4 30 11 -11
8 -26 16 -34 16 -8 0 -12 2 -9 5 3 3 45 -6 94 -20 84 -25 98 -26 237 -21 82 3
156 10 165 16 10 5 12 10 5 10 -7 0 -13 3 -13 8 0 4 30 7 66 7 l66 0 -5 -30
c-7 -41 -38 -159 -43 -164 -8 -8 -43 31 -38 44 8 19 -29 25 -156 25 -145 0
-160 -4 -160 -41 0 -15 -4 -31 -10 -34 -5 -3 -10 -22 -10 -41 0 -30 5 -38 46
-62 26 -15 66 -40 90 -55 50 -33 117 -48 112 -26 -3 16 3 19 35 19 47 0 50
-11 27 -91 -30 -104 -37 -108 -102 -79 -75 34 -82 44 -25 36 26 -3 47 -2 47 3
0 5 -4 11 -9 13 -11 4 -89 66 -118 94 -12 12 -46 36 -75 54 -29 17 -80 49
-113 71 -60 39 -162 92 -200 104 -15 5 -16 8 -6 14 9 6 -3 16 -40 35 -29 14
-60 26 -69 26 -24 0 -76 46 -59 52 9 3 1 13 -21 26 -46 29 -20 28 70 -3z
m-103 -374 c30 -11 55 -16 58 -11 7 11 126 3 178 -12 47 -14 107 -90 107 -135
0 -30 0 -30 73 -36 39 -3 99 -15 131 -26 63 -23 106 -27 106 -11 0 5 -12 16
-27 24 l-28 15 45 0 c85 -1 110 -21 110 -91 0 -48 -35 -61 -137 -53 -48 4
-113 16 -143 27 -70 24 -144 13 -155 -22 -9 -29 10 -57 44 -63 16 -4 49 -15
73 -26 65 -29 138 -51 167 -50 14 0 20 3 14 6 -7 2 -13 9 -13 13 0 9 67 7 76
-2 3 -3 -11 -39 -30 -79 -19 -41 -39 -86 -45 -101 -13 -34 -37 -36 -45 -5 -8
32 -53 70 -111 94 -27 12 -115 51 -195 88 -200 93 -304 129 -330 115 -11 -6
-20 -20 -20 -31 0 -21 44 -69 90 -97 14 -9 41 -28 60 -43 19 -15 69 -44 110
-66 115 -60 151 -82 194 -119 22 -19 44 -34 48 -34 20 0 48 -86 48 -149 0 -53
-5 -74 -36 -132 -62 -117 -104 -149 -195 -149 -42 0 -71 11 -197 76 -181 95
-228 121 -274 157 -21 16 -58 35 -84 43 -40 12 -49 12 -66 0 -24 -17 -41 -12
-77 23 -15 14 -44 41 -66 60 -42 36 -40 36 42 0 59 -25 66 -23 98 36 l19 37
-22 18 c-29 24 -28 28 6 22 22 -4 25 -3 15 9 -9 12 -3 14 38 15 l48 2 -3 -49
c-4 -51 10 -79 39 -79 7 0 22 -11 32 -24 10 -13 29 -27 41 -30 12 -4 79 -41
147 -81 171 -102 240 -124 314 -102 25 7 46 18 48 24 2 6 -24 28 -57 48 -73
44 -73 57 0 20 59 -30 77 -28 28 4 -42 26 -29 27 22 1 22 -11 50 -20 62 -20
21 1 19 4 -17 35 l-40 34 38 -6 c36 -5 37 -5 37 24 0 36 -45 108 -76 122 -13
6 -48 30 -78 55 -30 24 -71 50 -93 56 -35 12 -111 55 -123 69 -3 4 -43 24 -89
45 -82 39 -85 39 -113 23 -38 -22 -58 -22 -58 1 0 10 -14 26 -31 36 -38 22
-30 33 11 16 38 -16 49 -7 25 20 -18 20 -18 20 18 20 47 0 48 18 2 49 -44 29
-39 37 9 17 30 -13 36 -13 36 -1 0 8 8 18 17 24 22 12 10 27 -56 66 -28 17
-51 33 -51 37 0 4 29 -4 65 -17 36 -14 70 -25 75 -25 11 0 40 65 40 90 0 10
-7 23 -15 30 -25 21 -17 32 17 25 26 -6 30 -5 25 9 -4 9 1 20 11 25 10 6 12
11 5 11 -7 0 -13 5 -13 10 0 7 13 8 35 4 49 -9 43 6 -15 39 -45 26 -68 47 -37
34 6 -3 35 -14 64 -26z m-4359 -217 c-22 -22 -29 -24 -47 -14 -28 14 -22 36 9
32 20 -3 22 -1 16 24 -11 41 15 52 33 13 14 -28 13 -31 -11 -55z m2395 43 c-2
-29 14 -36 35 -15 9 9 12 8 12 -4 0 -16 -35 -48 -52 -48 -15 0 -48 45 -48 65
0 28 9 37 35 33 15 -2 20 -10 18 -31z m-2674 -199 c1 -10 -3 -18 -9 -18 -5 0
-10 17 -9 38 0 30 2 33 9 17 5 -11 9 -28 9 -37z m2944 2 c-7 -28 -13 -25 -13
6 0 14 4 23 9 20 5 -3 7 -15 4 -26z m-4391 -83 c-12 -13 -22 -26 -22 -29 0 -3
20 -8 45 -11 24 -4 60 -15 80 -26 37 -20 65 -18 114 8 28 16 27 3 -5 -30 -22
-23 -24 -30 -15 -48 9 -17 18 -19 44 -14 l32 6 -19 -21 c-25 -29 -7 -52 42
-52 l35 0 -21 -23 c-17 -18 -22 -36 -22 -80 0 -31 2 -57 5 -57 4 0 20 7 36 16
48 24 45 9 -5 -26 -33 -24 -49 -45 -61 -78 -19 -57 -19 -55 5 -49 30 8 23 -4
-25 -43 -24 -19 -44 -39 -44 -45 -1 -5 17 9 39 30 22 21 40 35 40 29 0 -5 -5
-15 -12 -22 -25 -25 6 -10 39 19 38 33 58 32 28 -1 -18 -20 -18 -20 35 -20 29
0 70 -5 91 -11 34 -11 42 -9 83 15 25 15 46 22 46 17 0 -5 -5 -13 -11 -16 -21
-14 -27 -49 -11 -68 14 -16 17 -16 39 -2 18 12 23 13 23 2 0 -7 -5 -18 -12
-25 -18 -18 5 -36 47 -36 39 0 41 -3 20 -33 -13 -18 -13 -27 1 -72 8 -28 19
-51 24 -51 6 0 10 4 10 8 0 5 12 14 27 21 23 11 22 7 -15 -33 -23 -25 -42 -56
-42 -68 0 -13 -3 -34 -7 -47 -5 -21 -3 -23 15 -19 22 6 30 -6 13 -16 -5 -3
-26 -32 -47 -63 -51 -80 -180 -209 -234 -237 -70 -36 -142 -49 -244 -44 -50 3
-102 10 -114 17 -28 15 -109 101 -145 154 -26 38 -28 48 -24 112 4 81 37 200
73 264 29 53 30 55 2 37 -13 -8 -59 -20 -103 -25 -95 -13 -159 -4 -247 36 -46
20 -63 35 -78 64 -11 21 -25 41 -31 45 -6 3 -22 31 -36 62 -20 46 -23 64 -18
111 7 58 56 173 106 246 34 52 166 141 239 162 30 8 66 24 79 34 29 23 42 24
34 3 -4 -11 10 -6 43 15 59 37 64 38 36 8z m5532 -527 c55 -60 77 -70 35 -16
-41 53 -9 38 58 -26 37 -36 83 -73 102 -83 l34 -17 -22 31 c-36 50 -14 36 70
-44 43 -41 85 -75 93 -75 8 0 61 -22 118 -49 140 -66 141 -66 132 -39 -6 21
-5 20 25 -5 19 -15 45 -27 61 -27 38 0 34 -18 -16 -74 -21 -24 -48 -56 -58
-70 -24 -33 -29 -33 -43 4 -10 25 -9 30 5 30 25 0 -19 41 -70 66 -24 11 -72
35 -108 52 -75 37 -100 40 -107 12 -3 -11 -11 -20 -19 -20 -18 0 -44 -40 -44
-68 0 -12 8 -35 19 -50 10 -15 32 -49 49 -77 17 -27 39 -58 48 -67 18 -19 60
-25 49 -8 -3 6 1 10 9 10 18 0 56 -34 56 -50 0 -16 -100 -118 -121 -123 -13
-4 -29 10 -59 49 -42 56 -41 69 3 34 55 -44 53 -35 -32 150 -11 25 -41 79 -65
120 -25 41 -57 97 -71 123 -14 26 -41 65 -60 86 -19 21 -35 47 -35 57 0 23
-26 62 -57 87 -32 25 -70 99 -43 82 17 -11 11 16 -12 47 -20 29 -20 30 -1 20
11 -6 45 -39 77 -72z m-173 -214 c12 -6 27 -24 32 -41 5 -16 20 -44 33 -62 13
-17 24 -36 24 -42 0 -16 -31 -13 -50 4 -30 27 -81 29 -123 5 -32 -19 -35 -24
-26 -42 20 -38 207 -276 268 -343 21 -22 52 -60 69 -84 56 -76 92 -89 56 -20
-8 17 -13 33 -11 36 3 2 11 -5 17 -17 21 -38 61 -79 83 -82 38 -6 28 -25 -36
-71 -36 -26 -76 -60 -90 -77 -14 -16 -28 -30 -31 -30 -8 0 -75 104 -70 109 2
2 13 -4 24 -14 25 -23 36 -14 19 17 -11 20 -75 105 -90 118 -3 3 -41 52 -84
110 -44 58 -95 123 -115 144 -112 124 -146 141 -175 86 -17 -33 -20 -141 -5
-171 9 -15 7 -19 -7 -19 -10 0 -29 7 -41 16 -13 9 -48 22 -78 29 -52 12 -58
11 -103 -12 -56 -27 -77 -64 -68 -119 10 -59 31 -81 89 -94 29 -6 80 -10 113
-8 l60 3 -3 35 -4 35 22 -28 c12 -16 28 -26 36 -23 7 3 17 0 21 -7 5 -7 33
-29 64 -50 115 -78 149 -133 149 -236 0 -66 -16 -96 -84 -161 -58 -55 -82 -69
-122 -70 -17 0 -50 -6 -72 -14 -34 -12 -43 -12 -60 0 -28 20 -140 220 -129
231 2 2 16 -15 31 -37 28 -43 52 -54 43 -19 -4 17 4 12 32 -19 35 -37 43 -41
105 -47 37 -4 70 -5 73 -1 3 3 1 18 -6 32 -6 15 -9 29 -7 32 3 2 11 -7 17 -22
13 -27 29 -35 29 -13 0 8 4 7 10 -3 8 -13 10 -13 10 2 0 9 -4 20 -10 23 -5 3
-10 11 -10 17 0 6 10 2 23 -10 13 -12 26 -22 30 -22 10 0 8 95 -2 122 -5 13
-21 35 -36 51 -20 21 -35 27 -68 27 -24 0 -69 7 -101 15 -40 11 -63 12 -76 5
-32 -17 -89 -11 -123 13 -32 22 -49 39 -110 112 -58 70 -88 127 -47 90 26 -24
37 -13 16 17 -18 25 -21 42 -7 33 5 -3 15 11 22 32 13 42 76 113 126 144 22
14 32 27 29 36 -5 11 -1 13 15 8 20 -7 21 -4 15 21 l-6 29 20 -23 c43 -51 44
10 1 84 -28 47 -17 43 34 -13 37 -42 44 -46 59 -34 22 19 20 30 -14 84 -16 26
-27 47 -25 47 3 0 25 -21 50 -46 37 -37 45 -42 45 -25 0 18 3 19 25 11 21 -8
28 -5 47 20 12 17 28 30 35 30 7 0 30 19 52 42 l39 42 -30 46 -31 45 42 -40
c41 -39 50 -41 31 -4 -14 25 2 25 25 -1 39 -44 48 -5 13 57 l-22 38 32 -29
c17 -16 41 -34 53 -40z m-4442 -113 c-12 -21 -31 -50 -41 -65 -27 -39 -23 -51
26 -77 43 -24 45 -24 72 -7 19 13 26 15 22 5 -18 -49 -19 -59 -4 -59 9 0 16
-7 16 -16 0 -14 3 -14 15 -4 12 10 15 9 15 -7 0 -10 -5 -24 -12 -31 -6 -6 -8
-15 -5 -19 4 -4 28 13 53 38 47 45 46 35 -6 -36 -20 -29 -25 -43 -18 -52 7 -9
7 -17 0 -25 -5 -7 -16 -33 -23 -58 -29 -102 -108 -165 -196 -158 -34 3 -37 0
-39 -23 -3 -30 -49 -128 -87 -184 -25 -37 -36 -75 -20 -75 4 0 20 12 36 28
l29 27 -16 -32 c-9 -18 -16 -40 -16 -49 0 -23 -39 -64 -60 -64 -41 0 -79 22
-85 48 -9 42 37 172 87 247 37 56 45 115 19 139 -25 23 -67 15 -76 -14 -3 -11
-23 -41 -44 -67 -49 -63 -91 -135 -91 -158 0 -14 3 -15 15 -5 8 7 15 10 15 7
0 -13 -31 -77 -38 -77 -4 0 -27 19 -52 41 -25 23 -62 52 -82 65 -43 27 -50 54
-15 54 33 0 82 34 119 83 18 24 78 99 133 166 55 68 112 141 128 164 15 23 35
51 43 61 9 11 19 42 23 70 6 50 7 51 44 57 28 4 52 19 85 53 26 25 48 46 50
46 2 0 -7 -17 -19 -37z m446 -310 c-14 -21 -34 -56 -46 -78 l-22 -40 24 20 23
20 -16 -26 c-12 -18 -14 -29 -6 -37 10 -10 -1 -19 -66 -52 -19 -10 -64 -65
-125 -157 -53 -77 -111 -159 -128 -182 -18 -22 -33 -44 -33 -49 0 -5 -19 -35
-41 -66 -32 -44 -42 -69 -44 -104 -2 -26 -8 -48 -13 -50 -5 -1 -23 8 -39 22
-17 14 -42 30 -57 35 -14 6 -26 17 -26 26 0 8 -9 15 -20 15 -31 0 -24 24 20
70 41 42 50 46 28 10 -7 -10 -9 -22 -6 -25 11 -11 52 23 78 65 14 22 28 40 32
40 4 0 10 9 13 20 3 11 12 26 19 32 7 7 32 47 56 88 24 41 53 84 65 95 11 11
40 54 64 95 42 71 52 111 40 160 -3 9 5 16 21 18 14 2 38 16 53 30 l29 27 -23
-47 c-13 -26 -21 -49 -18 -51 2 -3 20 -7 39 -10 33 -5 38 -3 89 59 60 72 73
82 36 27z m3131 -75 c9 -18 41 -63 70 -99 53 -65 67 -99 41 -99 -7 0 -22 7
-33 15 -26 19 -118 20 -138 0 -8 -8 -24 -15 -36 -15 -28 0 -60 -18 -60 -33 0
-7 14 -30 30 -51 17 -22 30 -47 30 -57 0 -10 11 -30 24 -46 12 -15 31 -45 40
-65 24 -49 40 -53 71 -16 20 24 25 38 20 57 -3 14 -8 38 -10 53 -3 27 -2 27
36 -13 21 -22 39 -46 39 -52 0 -7 14 -32 30 -57 35 -52 39 -80 11 -80 -11 0
-23 5 -26 10 -3 6 -33 10 -66 10 -66 0 -76 -13 -39 -53 11 -12 32 -44 46 -72
60 -119 91 -163 119 -165 52 -5 58 -2 52 33 -3 17 -9 41 -13 52 -6 16 -1 14
24 -9 27 -25 33 -27 48 -15 22 18 14 105 -15 172 -24 56 -21 61 8 12 11 -19
27 -35 34 -35 19 0 89 -142 81 -163 -3 -10 -11 -17 -18 -18 -6 0 -40 -18 -76
-39 -36 -22 -81 -46 -100 -54 -19 -9 -42 -20 -50 -26 -43 -28 -113 -61 -124
-57 -7 3 -18 24 -25 47 -7 23 -15 49 -18 59 -3 9 6 3 20 -14 26 -29 27 -29 27
-7 0 21 -29 82 -100 212 -16 30 -30 60 -30 66 0 6 -7 17 -15 24 -17 14 -65
112 -65 133 0 7 -17 39 -37 70 -33 50 -45 59 -91 74 -50 16 -52 18 -47 47 4
18 0 47 -9 68 -25 59 -19 64 17 13 29 -43 58 -62 48 -32 -2 7 -6 23 -9 36 -5
23 -3 23 24 -8 l30 -33 64 44 c46 30 64 48 62 61 -4 20 1 21 28 5 16 -10 25
-10 47 4 34 20 39 47 19 87 -16 30 -20 51 -11 51 2 0 12 -15 21 -32z m-2992
-74 c-5 -27 -4 -35 5 -30 7 5 11 -1 11 -16 1 -20 3 -19 20 12 l20 35 -6 -40
-5 -40 78 -35 c43 -19 81 -39 86 -45 4 -6 15 0 27 15 l20 25 0 -28 c0 -34 40
-58 65 -37 13 10 15 9 15 -9 0 -35 17 -24 49 32 33 56 41 53 16 -6 -8 -20 -15
-50 -15 -66 0 -30 -48 -79 -135 -139 -22 -15 -49 -35 -60 -46 -11 -10 -30 -25
-42 -33 -13 -9 -23 -21 -23 -27 0 -16 -53 -65 -107 -99 -26 -16 -43 -35 -43
-46 0 -17 -24 -37 -99 -81 -46 -27 -86 -69 -76 -79 14 -13 85 -31 85 -21 0 4
11 15 24 24 25 16 25 16 19 -17 -4 -29 -2 -34 31 -50 33 -15 40 -16 64 -2 46
24 69 48 102 103 17 28 33 52 35 52 2 0 -7 -25 -21 -55 -13 -31 -24 -61 -24
-68 0 -26 -60 -137 -74 -137 -18 0 -144 59 -152 71 -3 5 -12 9 -21 9 -9 0 -46
15 -82 34 -36 19 -85 40 -108 46 -49 15 -57 39 -22 68 40 32 61 57 80 95 21
40 35 49 26 17 -7 -27 2 -25 43 10 19 17 39 30 46 30 16 0 41 31 69 86 14 27
24 42 23 34 -2 -9 0 -17 4 -18 9 -2 21 9 138 116 47 43 95 84 108 91 28 15 30
51 1 51 -11 0 -41 10 -67 22 -97 44 -121 47 -166 22 -49 -28 -56 -29 -56 -6 0
16 90 212 97 212 2 0 1 -16 -3 -36z m2635 -184 c12 -33 28 -60 35 -60 16 0 94
-102 114 -149 18 -44 2 -134 -29 -167 l-21 -23 33 -40 c19 -22 54 -79 79 -128
25 -48 50 -87 55 -85 6 2 9 20 7 40 l-3 37 19 -30 c10 -16 26 -36 35 -44 46
-37 -9 -140 -67 -125 -23 5 -38 20 -89 84 -35 43 -57 81 -73 121 -31 76 -98
121 -132 87 -17 -17 -15 -43 7 -86 10 -20 22 -53 26 -72 4 -19 10 -37 14 -40
4 -3 15 -24 25 -48 25 -54 46 -74 46 -41 0 21 3 20 25 -14 14 -20 24 -41 21
-46 -3 -5 -24 -11 -47 -15 -22 -4 -68 -18 -101 -32 -69 -29 -92 -22 -64 20 9
14 16 35 16 48 0 12 -30 114 -66 227 -58 182 -84 253 -126 352 -6 14 -24 33
-40 42 -29 16 -38 50 -17 63 8 5 10 31 6 83 l-6 76 25 -60 c37 -87 42 -90 95
-63 37 19 45 29 47 57 l3 33 24 -31 c17 -24 24 -28 28 -16 4 8 13 12 22 9 11
-4 15 0 16 17 0 22 2 21 16 -8 32 -64 40 -33 16 65 -10 43 4 22 26 -38z
m-1587 -129 c-5 -39 -5 -71 0 -71 4 0 8 7 8 16 0 8 5 12 10 9 6 -3 11 4 11 17
1 15 4 11 8 -12 6 -33 8 -35 45 -35 31 0 40 4 49 25 11 25 11 25 14 3 3 -14
12 -23 22 -23 14 0 21 11 27 43 8 41 8 41 11 10 2 -17 11 -37 19 -43 21 -18
17 -32 -14 -62 -31 -28 -58 -118 -40 -129 6 -4 2 -31 -11 -73 -19 -61 -19
-101 -1 -94 4 2 39 33 78 70 54 50 72 75 78 103 6 32 8 34 19 18 13 -17 15
-17 40 7 24 22 26 30 21 72 -7 50 11 109 26 86 6 -10 8 -10 8 0 0 21 18 13 22
-10 5 -34 34 -35 43 -1 l7 28 10 -28 c16 -44 49 -33 67 21 7 24 14 42 16 40 1
-2 5 -31 9 -66 l7 -63 -38 -15 c-46 -19 -139 -93 -239 -190 -80 -76 -89 -100
-55 -141 24 -29 29 -29 41 0 7 18 9 13 9 -25 1 -34 8 -54 25 -75 13 -15 38
-52 56 -80 17 -29 36 -53 40 -53 5 0 12 28 17 63 l7 62 8 -76 c8 -90 28 -143
63 -171 14 -11 25 -28 25 -39 0 -23 -11 -23 -129 -6 -84 13 -104 25 -82 51 8
10 5 22 -14 47 -13 19 -36 54 -52 79 -15 25 -39 61 -54 80 -15 19 -30 45 -33
56 -6 18 -31 33 -57 34 -13 0 -21 -199 -9 -235 11 -34 29 -47 31 -22 1 6 5 -6
8 -28 6 -40 -7 -63 -29 -50 -5 3 -44 6 -85 7 -89 1 -97 9 -61 63 21 31 26 50
26 100 0 34 5 77 11 94 8 22 8 40 2 54 -13 29 -4 249 10 240 7 -4 8 7 4 33 -4
21 -7 62 -7 89 0 28 -5 57 -10 65 -8 13 -14 10 -40 -16 -27 -27 -33 -42 -45
-125 -29 -197 -36 -235 -50 -290 -8 -31 -15 -72 -15 -90 0 -19 -5 -51 -11 -73
-8 -30 -7 -48 5 -87 9 -26 16 -51 16 -55 0 -9 -133 6 -146 17 -6 5 -19 7 -28
3 -25 -10 -27 16 -6 81 20 60 20 60 17 18 -1 -24 0 -43 3 -43 24 0 62 161 85
364 4 33 10 69 15 81 4 11 11 63 15 115 6 88 5 97 -14 119 -26 30 -27 48 -2
56 10 3 25 22 34 43 l15 37 -5 -53 -6 -52 34 6 c19 3 39 7 45 9 7 2 17 27 23
57 7 29 15 64 18 78 10 47 14 3 5 -69z m-312 32 c-7 -21 -23 -60 -36 -87 -27
-56 -27 -56 -15 -56 5 0 14 14 21 30 7 17 17 30 22 30 11 0 6 -19 -27 -105
-25 -66 -38 -135 -26 -135 5 0 14 14 21 30 26 62 29 39 4 -27 -51 -132 -54
-149 -54 -312 1 -144 2 -154 16 -131 15 24 15 24 8 -15 -8 -47 -8 -53 1 -82 6
-18 3 -23 -11 -23 -24 1 -171 44 -180 53 -4 4 3 16 16 27 16 14 26 17 31 9 13
-21 28 55 33 170 6 119 -2 158 -31 147 -9 -4 -24 1 -34 9 -10 10 -30 15 -49
13 -29 -3 -41 -14 -96 -97 -62 -90 -83 -150 -49 -137 18 6 21 -34 5 -64 -9
-17 -13 -17 -82 6 -102 35 -107 41 -78 104 26 55 58 92 47 55 -12 -46 -17 -75
-12 -75 14 0 158 158 175 190 10 19 27 44 39 54 11 10 35 41 52 67 17 27 34
49 38 49 4 0 24 34 44 75 21 41 40 75 43 75 3 0 3 -8 0 -17 -5 -15 -3 -14 10
2 18 22 64 115 64 130 0 6 12 18 25 28 20 14 24 15 19 2 -12 -30 13 -14 31 20
24 43 31 38 15 -12z m1275 -143 l12 45 7 -85 c4 -47 7 -89 6 -95 -4 -16 12
-75 21 -81 5 -3 9 8 9 25 0 16 4 32 9 35 5 4 8 -17 6 -47 -5 -84 10 -164 54
-282 23 -60 46 -118 51 -127 6 -10 10 -26 11 -35 0 -10 7 -2 14 17 l13 35 1
-41 c1 -26 9 -51 22 -68 12 -15 18 -31 13 -35 -9 -9 -204 -25 -204 -17 0 16
28 52 38 48 18 -6 15 37 -8 104 -12 32 -28 82 -37 109 -25 76 -35 84 -101 79
-31 -2 -62 -10 -68 -16 -7 -7 -24 -64 -39 -126 -22 -90 -24 -116 -15 -127 10
-11 16 -12 26 -4 10 8 15 5 19 -14 4 -14 5 -36 3 -48 -3 -23 -8 -24 -83 -27
-110 -4 -117 3 -101 88 l12 65 13 -50 13 -50 13 30 c26 60 73 191 84 235 6 25
25 97 41 160 16 63 30 135 30 160 0 28 3 40 9 32 11 -17 21 31 21 102 1 45 28
126 30 86 1 -27 20 12 20 41 0 14 3 29 8 33 4 4 9 -39 11 -96 3 -102 4 -102
16 -58z"/>
<path d="M4490 6868 c-19 -12 -71 -41 -115 -64 -44 -24 -76 -44 -71 -44 13 0
158 75 202 105 45 31 32 33 -16 3z"/>
<path d="M4235 6730 c-3 -6 1 -7 9 -4 18 7 21 14 7 14 -6 0 -13 -4 -16 -10z"/>
<path d="M5078 6580 c-200 -358 -195 -345 -202 -440 -5 -80 -39 -189 -58 -190
-4 0 -24 35 -44 78 -36 75 -37 80 -38 202 -1 117 -3 129 -29 179 -56 106 -152
183 -206 166 -11 -3 -27 -18 -38 -33 -35 -53 -16 -254 34 -355 27 -55 83 -106
121 -113 21 -3 45 -8 55 -11 17 -4 107 -173 107 -200 0 -17 -121 -215 -218
-358 -128 -188 -156 -271 -111 -329 25 -32 67 -35 92 -6 24 28 61 106 82 170
21 65 35 85 35 49 0 -16 13 -38 35 -59 l35 -34 0 -108 c0 -59 2 -108 5 -108 2
0 24 14 49 31 31 22 57 32 85 33 l41 1 0 67 c0 39 -4 68 -10 68 -5 0 -10 -25
-10 -56 0 -48 -2 -55 -18 -50 -16 5 -52 -2 -95 -19 -13 -5 -16 -3 -11 8 3 8
17 18 30 21 35 9 18 29 -17 22 -29 -5 -29 -5 -29 43 0 56 25 87 59 76 24 -7
28 7 7 25 -8 6 -17 21 -19 33 l-4 22 -2 -21 c-2 -31 -30 -39 -40 -12 l-8 21
-16 -22 c-21 -31 -37 -18 -37 29 0 28 5 42 19 49 15 9 20 7 25 -12 5 -20 7
-20 23 13 20 39 49 48 94 30 26 -11 29 -17 29 -57 0 -39 2 -44 15 -33 8 7 15
19 15 26 0 20 18 17 29 -4 16 -30 1 -72 -33 -93 -31 -19 -31 -19 -5 -19 34 0
61 21 74 60 11 32 11 32 44 -64 26 -74 41 -103 67 -126 19 -16 39 -30 43 -30
14 0 61 59 62 78 5 71 -19 123 -136 297 -52 77 -119 189 -151 250 l-56 109 43
84 c34 66 52 88 80 102 19 10 40 24 45 32 19 24 187 429 181 434 -3 4 -46 -74
-96 -172 -49 -99 -90 -172 -90 -163 -1 14 63 156 141 317 12 23 18 45 15 49
-9 9 -3 19 -98 -169 -46 -92 -85 -164 -87 -159 -2 5 34 83 79 174 45 91 79
171 77 178 -2 7 -45 -64 -94 -159 -49 -95 -90 -168 -92 -163 -2 5 33 85 78
176 44 92 79 172 77 178 -2 7 -15 -9 -29 -33z m-216 -877 c25 -54 51 -114 58
-133 6 -19 16 -44 21 -55 5 -11 13 -32 18 -47 10 -27 10 -27 -17 -15 -15 6
-41 27 -58 44 -40 42 -91 45 -126 9 -23 -23 -88 -43 -88 -27 0 12 28 90 49
136 10 22 33 73 51 113 18 39 36 72 40 72 4 0 27 -44 52 -97z"/>
<path d="M5861 6588 c-24 -25 -34 -67 -29 -122 l3 -38 30 26 c39 34 65 33 100
-4 24 -26 28 -37 26 -77 -7 -139 -107 -170 -212 -67 l-49 48 0 -57 c0 -31 4
-57 8 -57 14 0 42 -69 42 -103 0 -18 -11 -52 -25 -76 -14 -23 -25 -45 -25 -48
0 -16 100 44 130 77 16 18 65 50 76 50 8 0 14 -7 14 -15 0 -8 5 -15 10 -15 6
0 10 4 10 10 0 5 9 14 20 20 36 20 23 -18 -25 -69 -46 -49 -62 -78 -23 -41 12
11 25 20 29 20 15 0 96 115 110 155 22 66 16 183 -13 247 -42 90 -113 158
-167 158 -11 0 -29 -10 -40 -22z"/>
<path d="M3620 6543 c-27 -10 -71 -57 -93 -98 -16 -32 -21 -57 -20 -125 1 -95
23 -172 72 -249 31 -48 101 -121 101 -106 0 5 -15 23 -34 40 -34 31 -56 64
-56 86 0 7 14 0 30 -16 29 -28 30 -28 30 -7 0 33 25 27 73 -16 43 -39 136 -96
145 -88 2 3 -9 22 -24 42 -40 52 -40 116 -1 167 22 30 27 45 26 94 0 49 -2 55
-12 39 -7 -11 -32 -42 -56 -68 -38 -42 -49 -48 -83 -48 -50 0 -71 12 -97 54
-14 23 -21 50 -21 85 0 45 4 57 29 82 37 37 52 36 96 -2 l35 -31 0 43 c0 88
-69 148 -140 122z"/>
<path d="M6253 6480 c0 -25 2 -35 4 -22 2 12 2 32 0 45 -2 12 -4 2 -4 -23z"/>
<path d="M4043 6355 c0 -22 2 -30 4 -17 2 12 2 30 0 40 -3 9 -5 -1 -4 -23z"/>
<path d="M2768 6343 c7 -3 16 -2 19 1 4 3 -2 6 -13 5 -11 0 -14 -3 -6 -6z"/>
<path d="M2800 6330 c0 -5 5 -10 11 -10 5 0 7 5 4 10 -3 6 -8 10 -11 10 -2 0
-4 -4 -4 -10z"/>
<path d="M6669 6323 c-13 -15 -12 -15 9 -4 23 12 28 21 13 21 -5 0 -15 -7 -22
-17z"/>
<path d="M7617 6079 c7 -7 15 -10 18 -7 3 3 -2 9 -12 12 -14 6 -15 5 -6 -5z"/>
<path d="M7665 6060 c3 -5 8 -10 11 -10 2 0 4 5 4 10 0 6 -5 10 -11 10 -5 0
-7 -4 -4 -10z"/>
<path d="M1280 5850 c0 -11 5 -20 10 -20 6 0 10 9 10 20 0 11 -4 20 -10 20 -5
0 -10 -9 -10 -20z"/>
<path d="M7670 5669 c0 -5 5 -7 10 -4 6 3 10 8 10 11 0 2 -4 4 -10 4 -5 0 -10
-5 -10 -11z"/>
<path d="M4385 4433 c-35 -9 -179 -78 -255 -123 -68 -40 -160 -114 -160 -129
0 -3 35 -14 78 -24 42 -10 91 -23 107 -28 71 -21 264 -51 387 -58 140 -9 338
-3 338 9 0 4 -18 20 -40 35 l-40 27 -35 -30 c-31 -28 -38 -30 -65 -20 -38 13
-52 37 -44 77 9 41 34 48 61 17 26 -30 33 -33 26 -8 -2 9 -21 30 -41 45 -20
15 -70 59 -112 96 -142 128 -143 129 -205 114z"/>
<path d="M5115 4414 c-16 -14 -41 -36 -55 -48 -43 -37 -174 -150 -189 -164
-10 -10 -11 -16 -2 -25 12 -12 23 -3 35 28 2 6 10 6 22 -1 22 -13 32 -80 15
-97 -22 -22 -10 -28 42 -22 385 43 486 59 590 92 26 8 47 18 47 23 0 26 -168
132 -295 188 -130 56 -170 61 -210 26z"/>
<path d="M5780 3945 c0 -3 4 -13 9 -23 5 -9 14 -33 20 -52 l11 -35 -7 40 c-3
22 -6 48 -7 58 0 14 -26 26 -26 12z"/>
<path d="M3823 3918 c0 -7 -3 -35 -6 -63 l-6 -50 12 45 c7 25 15 50 19 56 4 6
5 14 1 18 -10 10 -20 7 -20 -6z"/>
<path d="M5721 3915 c-1 -17 -3 -17 -11 -5 -8 12 -9 10 -9 -10 2 -51 14 -83
32 -86 15 -2 17 3 11 34 -4 21 -11 48 -15 62 -6 21 -7 21 -8 5z"/>
<path d="M5625 3851 c3 -58 15 -99 15 -55 0 16 2 17 10 4 13 -20 12 -9 -1 48
-18 71 -29 73 -24 3z"/>
<path d="M3887 3849 c-10 -28 -16 -53 -13 -57 3 -3 6 0 6 8 0 10 3 10 15 0 13
-11 15 -5 15 44 0 31 -1 56 -3 56 -1 0 -10 -23 -20 -51z"/>
<path d="M5524 3838 c4 -29 12 -59 17 -67 7 -12 8 -8 3 12 -4 16 -2 27 4 27 6
0 13 -8 15 -17 2 -10 2 0 0 22 -7 60 -13 75 -30 75 -13 0 -14 -9 -9 -52z m26
12 c0 -11 -4 -20 -10 -20 -5 0 -10 9 -10 20 0 11 5 20 10 20 6 0 10 -9 10 -20z"/>
<path d="M3970 3853 c0 -16 -3 -39 -5 -53 -5 -22 -4 -22 4 -5 9 19 10 19 10
-2 2 -40 21 -24 21 16 0 22 3 48 6 58 5 15 4 15 -5 3 -7 -10 -11 -11 -11 -2 0
6 -4 12 -10 12 -5 0 -10 -12 -10 -27z"/>
<path d="M4067 3863 c-3 -4 -8 -32 -12 -61 -6 -49 -5 -54 11 -50 12 2 19 12
20 28 1 22 0 22 -3 3 -2 -13 -9 -23 -15 -23 -6 0 -8 10 -4 23 3 12 6 32 6 45
0 26 16 30 24 5 3 -11 4 -8 3 6 -2 24 -21 39 -30 24z"/>
<path d="M5437 3815 c6 -55 28 -91 38 -63 3 8 1 37 -4 64 l-10 49 5 -52 c3
-33 1 -53 -6 -53 -5 0 -10 12 -11 28 -1 15 -5 38 -9 52 -6 17 -7 9 -3 -25z"/>
<path d="M4193 3842 c-6 -4 -13 -32 -15 -62 -2 -44 0 -55 12 -55 10 0 18 17
24 53 9 54 1 78 -21 64z m12 -54 c-7 -43 -12 -55 -18 -47 -8 9 6 89 15 89 6 0
7 -17 3 -42z"/>
<path d="M5277 3788 c7 -78 11 -82 12 -10 1 34 -3 62 -8 62 -4 0 -6 -24 -4
-52z"/>
<path d="M5354 3824 c3 -9 6 -37 7 -62 0 -36 3 -42 9 -27 5 12 9 14 9 6 1 -8
3 -12 6 -9 8 8 -17 108 -28 108 -5 0 -6 -7 -3 -16z"/>
<path d="M4317 3823 c-4 -3 -7 -18 -6 -32 l1 -26 8 25 c7 21 8 19 9 -17 1 -43
-18 -73 -20 -31 -1 18 -2 19 -6 5 -3 -10 -2 -25 1 -34 5 -12 9 -13 21 -3 10 8
15 31 15 66 0 50 -7 64 -23 47z"/>
<path d="M5210 3797 c0 -22 6 -37 15 -41 8 -3 15 -13 15 -21 0 -9 -4 -13 -10
-10 -5 3 -10 2 -10 -4 0 -17 22 -24 31 -10 13 20 11 27 -11 49 -21 21 -28 56
-9 44 7 -4 10 -1 7 6 -10 30 -28 21 -28 -13z"/>
<path d="M4426 3812 c-2 -4 -4 -32 -4 -62 0 -48 1 -52 10 -30 l11 25 7 -30 c6
-23 8 -17 9 31 1 46 -3 63 -14 67 -8 4 -16 3 -19 -1z m24 -32 c0 -11 -4 -20
-8 -20 -4 0 -8 9 -9 20 -1 11 2 20 8 20 5 0 9 -9 9 -20z"/>
<path d="M5150 3755 c0 -51 3 -65 15 -65 8 0 15 5 15 10 0 6 -4 10 -10 10 -14
0 -12 37 3 43 10 4 10 6 0 6 -16 1 -17 41 -2 41 5 0 7 5 4 10 -16 25 -25 5
-25 -55z"/>
<path d="M5057 3803 c-2 -5 -1 -35 3 -68 l7 -60 3 60 3 60 6 -47 c4 -26 9 -50
13 -53 6 -6 0 79 -7 103 -5 13 -22 16 -28 5z"/>
<path d="M4521 3738 c1 -68 6 -61 11 15 2 26 0 47 -4 47 -5 0 -7 -28 -7 -62z"/>
<path d="M4619 3791 c12 -8 13 -16 3 -49 -16 -53 -15 -62 6 -62 14 0 14 2 3 9
-12 8 -12 16 2 53 22 56 21 58 -5 58 -18 0 -20 -2 -9 -9z"/>
<path d="M4946 3769 c-7 -38 -7 -100 1 -80 5 11 7 11 14 0 6 -9 7 10 3 46 -8
72 -10 75 -18 34z"/>
<path d="M5952 3761 c-17 -55 -15 -79 9 -91 45 -25 66 43 32 101 -10 16 -20
29 -24 29 -3 0 -11 -17 -17 -39z"/>
<path d="M4699 3785 c-11 -19 -11 -97 -1 -91 6 3 13 -2 15 -11 8 -30 7 28 -1
72 -4 22 -10 36 -13 30z"/>
<path d="M4783 3730 c0 -36 2 -50 4 -32 2 17 2 47 0 65 -2 17 -4 3 -4 -33z"/>
<path d="M4824 3743 c4 -27 7 -53 8 -58 1 -6 9 -12 19 -12 17 -2 18 0 3 23
-11 15 -14 35 -11 53 5 21 2 31 -10 35 -13 6 -15 0 -9 -41z"/>
<path d="M3601 3740 c-5 -17 -8 -37 -5 -45 8 -19 48 -19 64 -1 9 12 7 21 -11
45 -28 39 -34 39 -48 1z"/>
<path d="M1190 4566 c0 -11 9 -16 26 -16 14 0 23 -4 19 -10 -3 -5 -15 -10 -26
-10 -14 0 -19 -5 -17 -17 4 -21 25 -21 121 -2 37 7 67 19 67 25 0 17 -54 34
-127 41 -54 5 -63 4 -63 -11z"/>
<path d="M1615 3595 c-32 -19 -76 -37 -97 -40 -21 -4 -44 -12 -51 -19 -14 -14
-156 -86 -169 -86 -5 0 -22 -10 -39 -22 -17 -13 -56 -32 -87 -43 -52 -18 -57
-23 -60 -52 -2 -18 -1 -33 1 -33 2 0 32 9 66 21 35 11 65 18 67 16 3 -2 -20
-19 -51 -38 -54 -34 -74 -62 -35 -52 21 5 28 -11 10 -22 -18 -11 -11 -22 22
-36 41 -17 234 -17 250 -1 7 7 23 12 38 12 47 0 143 55 201 116 57 59 89 126
89 183 0 45 -27 105 -51 118 -32 17 -36 16 -104 -22z"/>
<path d="M8260 3938 c0 -15 25 -33 94 -69 44 -23 61 -28 70 -19 8 8 7 15 -6
24 -25 19 -22 27 7 20 21 -5 25 -3 25 14 0 23 -20 29 -127 37 -41 2 -63 0 -63
-7z"/>
<path d="M8010 3547 c-33 -17 -51 -54 -38 -81 9 -21 106 -86 127 -86 6 0 30
-10 55 -22 42 -20 45 -20 61 -4 17 16 16 19 -16 52 -37 38 -36 40 14 19 45
-19 47 -19 47 0 0 9 -13 24 -30 33 -34 19 -40 37 -10 27 51 -16 -8 42 -62 61
-50 17 -115 18 -148 1z"/>
<path d="M1783 3061 c-61 -16 -104 -40 -72 -41 7 -1 -8 -12 -35 -26 -75 -39
-192 -130 -214 -166 -21 -33 -40 -108 -28 -108 4 0 23 7 44 16 20 9 48 20 62
25 l25 9 -25 -20 c-87 -71 -101 -83 -96 -87 3 -3 30 9 62 26 31 18 58 30 60
28 3 -2 -18 -22 -46 -43 -71 -54 -64 -70 16 -39 l39 16 -39 -34 c-25 -22 -35
-37 -27 -41 6 -4 11 -3 11 2 0 8 42 32 56 32 2 0 -3 -11 -12 -25 -24 -38 -12
-52 51 -60 48 -6 66 -3 123 20 95 38 123 54 159 88 17 16 35 27 41 23 16 -9
92 54 98 82 3 15 18 61 34 102 43 115 43 115 20 159 -29 58 -79 81 -172 80
-40 -1 -101 -9 -135 -18z"/>
<path d="M2270 2556 c-78 -22 -184 -79 -186 -100 -2 -11 -11 -24 -21 -29 -35
-19 -164 -159 -178 -194 -8 -20 -15 -53 -15 -75 0 -36 2 -39 23 -32 12 4 36
17 52 29 57 42 60 38 10 -16 -27 -29 -54 -56 -59 -60 -4 -4 -4 -9 1 -12 5 -3
31 12 57 33 73 60 72 50 -1 -29 -53 -56 -36 -70 30 -26 45 31 48 22 5 -22 -41
-42 -32 -51 13 -13 41 35 56 38 35 8 -19 -27 -21 -55 -3 -61 6 -2 36 -2 66 1
45 4 69 15 139 62 46 31 92 71 103 88 10 18 26 32 35 32 24 0 83 69 88 104 3
17 10 63 15 103 6 39 11 87 11 106 0 35 -28 76 -65 95 -35 18 -108 22 -155 8z"/>
<path d="M7527 2524 c-9 -9 36 -93 71 -133 31 -36 61 -36 42 -1 -15 29 -12 32
14 15 21 -14 24 -14 30 0 3 9 6 18 6 20 0 8 -102 75 -114 75 -8 0 -16 7 -20
15 -6 16 -18 19 -29 9z"/>
<path d="M2734 2128 c-56 -44 -74 -62 -74 -73 0 -6 -16 -30 -36 -53 -25 -30
-34 -48 -29 -62 8 -26 26 -25 59 1 34 27 42 20 16 -14 -19 -24 -27 -57 -13
-57 3 0 21 11 39 25 31 24 32 24 26 3 l-5 -22 33 20 c37 22 80 96 86 151 6 45
-25 103 -55 103 -10 0 -31 -10 -47 -22z"/>
<path d="M5885 1583 c-12 -29 -5 -124 12 -149 8 -13 20 -45 27 -71 12 -47 15
-49 56 -44 6 0 10 20 10 44 l1 42 20 -37 c26 -50 42 -49 37 2 -4 42 0 48 20
28 9 -9 12 -3 12 28 0 43 -42 121 -83 155 -30 25 -102 26 -112 2z"/>
<path d="M3954 1362 c-37 -44 -76 -117 -67 -126 13 -12 30 -5 41 17 11 20 12
19 7 -9 -7 -37 18 -55 34 -26 13 24 32 165 23 174 -4 4 -21 -10 -38 -30z"/>
<path d="M5322 1278 c-8 -24 -16 -67 -19 -97 -6 -48 -4 -53 13 -49 10 2 20 9
20 16 4 40 7 44 13 17 3 -17 14 -31 24 -33 20 -4 23 30 6 93 -6 22 -12 51 -13
65 -4 42 -30 35 -44 -12z"/>
</g>
</svg>
